# xmcd
#
# Track frame offsets:
#  150
#  17107
#  41976
#  56339
#  73962
#  90890
#  109287
#  130421
#  145245
#  158376
#  171194
#  184554
#
# Disc length: 2682 seconds
#
# Revision: 0
# Processed by: cddbd v1.5.1PL2 Copyright (c) Steve Scherf et al.
# Submitted via: Collectorz.com_Music_Collector 6.9
#
DISCID=a00a780c
DTITLE=Patty Loveless - Dreaming My Dreams
DYEAR=2005
DGENRE=Country
TTITLE0=01 - Keep Your Distance
TTITLE1=02 - Old Soul
TTITLE2=03 - When Being Who You Are Is Not Enough
TTITLE3=04 - Nobody Here By That Name
TTITLE4=05 - Same Kind Of Crazy
TTITLE5=06 - Everything But The Words
TTITLE6=07 - Dreaming My Dreams With You
TTITLE7=08 - On The Verge Of Tears
TTITLE8=09 - Never Ending Song Of Love
TTITLE9=10 - Big Chance
TTITLE10=11 - My Old Friend The Blues
TTITLE11=12 - When I Reach The Place I'm Going
EXTD=
EXTT0=
EXTT1=
EXTT2=
EXTT3=
EXTT4=
EXTT5=
EXTT6=
EXTT7=
EXTT8=
EXTT9=
EXTT10=
EXTT11=
PLAYORDER=
